<svg xmlns="http://www.w3.org/2000/svg" viewBox="0 0 900 560" role="img" aria-labelledby="title desc">
  <title id="title">School-friendly rubbish report image</title>
  <desc id="desc">A simple illustration of rubbish bags beside bins on a clean city street.</desc>
  <rect width="900" height="560" fill="#e9f3f1"/>
  <rect y="370" width="900" height="190" fill="#bccbc7"/>
  <rect x="70" y="120" width="760" height="260" rx="12" fill="#f4e7cf"/>
  <rect x="115" y="165" width="125" height="120" rx="8" fill="#b8d6d0"/>
  <rect x="278" y="165" width="125" height="120" rx="8" fill="#b8d6d0"/>
  <rect x="610" y="165" width="125" height="120" rx="8" fill="#b8d6d0"/>
  <rect x="170" y="318" width="120" height="128" rx="12" fill="#0b5d5e"/>
  <rect x="156" y="300" width="148" height="28" rx="8" fill="#173635"/>
  <rect x="185" y="342" width="90" height="76" rx="8" fill="#dff1ec"/>
  <path d="M410 446c-30-51 5-108 54-94 32-42 92-12 79 42 48 8 55 72 8 86H443c-16 0-27-12-33-34Z" fill="#62736f"/>
  <path d="M530 458c-22-36 2-76 37-67 23-30 66-9 57 30 35 6 40 52 6 61h-78c-11 0-19-8-22-24Z" fill="#50615d"/>
  <path d="M490 365l22 34m82 8l-28 30" stroke="#dff1ec" stroke-width="8" stroke-linecap="round"/>
  <text x="450" y="515" text-anchor="middle" font-family="Arial, Helvetica, sans-serif" font-size="34" font-weight="700" fill="#173635">Rubbish report photo</text>
</svg>
